<?xml version="1.0" encoding="UTF-8"?>
<svg version="1.1" xmlns="http://www.w3.org/2000/svg" width="500" height="500">

<path d="M0 0 C3.4947951 0.56929803 5.72426977 1.63525025 8.77197266 3.43359375 C9.87178467 4.07312988 10.97159668 4.71266602 12.10473633 5.37158203 C13.29334581 6.07966609 14.48190231 6.78783911 15.67041016 7.49609375 C16.9161025 8.22517838 18.16261887 8.95285675 19.40991211 9.67919922 C22.00245437 11.19046665 24.59134014 12.70772845 27.17773438 14.22949219 C32.58892514 17.40784514 38.03833331 20.51886484 43.49005127 23.62701416 C45.24158918 24.62604403 46.9919966 25.62703044 48.7421875 26.62841797 C56.40028405 31.00693748 64.08990023 35.3266543 71.79541016 39.62109375 C80.93986586 44.71823973 89.99900107 49.94608121 99.02685547 55.24658203 C106.15126877 59.41898688 113.33118962 63.48122319 120.54541016 67.49609375 C129.77472418 72.63240764 138.91777988 77.8982191 148.02587891 83.24609375 C155.15069205 87.41853334 162.33087157 91.48104619 169.54541016 95.49609375 C178.77472418 100.63240764 187.91777988 105.8982191 197.02587891 111.24609375 C204.15069205 115.41853334 211.33087157 119.48104619 218.54541016 123.49609375 C227.77472418 128.63240764 236.91777988 133.8982191 246.02587891 139.24609375 C253.15069205 143.41853334 260.33087157 147.48104619 267.54541016 151.49609375 C276.77472418 156.63240764 285.91777988 161.8982191 295.02587891 167.24609375 C302.15069205 171.41853334 309.33087157 175.48104619 316.54541016 179.49609375 C325.77472418 184.63240764 334.91777988 189.8982191 344.02587891 195.24609375 C351.15069682 199.41853614 358.33097658 203.48085119 365.54541016 207.49609375 C376.88497008 213.81040835 388.10900529 220.30764037 399.29638672 226.88720703 C401.94218232 228.43567888 404.5971398 229.96688871 407.25634766 231.4921875 C408.04976563 231.95012695 408.84318359 232.40806641 409.66064453 232.87988281 C411.11985877 233.72173718 412.58191667 234.55869042 414.04736328 235.38964844 C417.19588352 237.21591778 418.99195427 238.41590992 421.04541016 241.49609375 C421.48291016 244.37109375 421.48291016 244.37109375 421.04541016 247.49609375 C417.86433011 251.12411715 414.60881246 253.57483775 410.41650391 255.921875 C409.31371094 256.54513672 408.21091797 257.16839844 407.07470703 257.81054688 C405.87747803 258.47662834 404.68021136 259.14264208 403.48291016 259.80859375 C402.22916446 260.51410303 400.975918 261.22050015 399.72314453 261.92773438 C397.12268497 263.39487927 394.52012892 264.85819852 391.91601562 266.31884766 C385.93880669 269.67565476 379.99394754 273.08880993 374.04541016 276.49609375 C371.71241593 277.83002078 369.37891236 279.16305561 367.04541016 280.49609375 C365.8787341 281.16274399 364.71206743 281.82941065 363.54541016 282.49609375 C305.79541016 315.49609375 248.04541016 348.49609375 130.79548645 415.49604797 C129.62856297 416.16286285 128.46164199 416.8296821 127.29472351 417.49650574 C124.38200665 419.16094076 121.46924661 420.82530014 118.55639648 422.48950195 C113.25924216 425.51603045 107.9624331 428.54315614 102.66719055 431.57302856 C90.21687157 438.6968875 77.75630565 445.80158285 65.26367188 452.85107422 C59.11869416 456.32003056 52.98362881 459.8057429 46.85791016 463.30859375 C46.02775391 463.78321045 45.19759766 464.25782715 44.34228516 464.74682617 C39.76848355 467.36307169 35.19661155 469.98266328 30.62605286 472.60456848 C28.08191389 474.06359485 25.53702276 475.52130627 22.99203491 476.97885132 C21.7485358 477.69146801 20.5053845 478.40469201 19.26260376 479.11856079 C17.51528538 480.12220721 15.76669587 481.12363961 14.01806641 482.125 C13.0101001 482.7032251 12.00213379 483.2814502 10.96362305 483.87719727 C1.26644765 489.25676474 1.26644765 489.25676474 -4.95458984 487.49609375 C-7.603787 485.03727497 -7.94652359 483.57190616 -8.33293867 479.94010311 C-8.34987148 478.47775453 -8.35019767 477.01515906 -8.33769989 475.55276585 C-8.34265941 474.74260583 -8.34761892 473.93244581 -8.35272872 473.09773549 C-8.36574785 470.36566422 -8.35728025 467.63407664 -8.34899902 464.9019928 C-8.35388493 462.93044592 -8.36007334 460.95890191 -8.36745691 458.9873628 C-8.38391752 453.55605824 -8.38152609 448.12489825 -8.37608194 442.69357741 C-8.37341928 436.84140004 -8.38792911 430.98926188 -8.400177 425.13710022 C-8.42126523 413.6670433 -8.42576993 402.19703688 -8.42398912 390.72696287 C-8.42268325 381.40739536 -8.42647664 372.08784368 -8.43391418 362.76827812 C-8.43496451 361.43026085 -8.43601213 360.09224358 -8.43705705 358.75422631 C-8.43757639 358.09006078 -8.43809574 357.42589525 -8.43863082 356.74160349 C-8.43915096 356.07623617 -8.4396711 355.41086885 -8.440207 354.72533888 C-8.440731 354.05887449 -8.44125499 353.3924101 -8.44179486 352.70574982 C-8.45638216 333.95591531 -8.46465885 315.20608644 -8.46004486 296.45624638 C-8.45987291 295.74912933 -8.45970095 295.04201228 -8.45952379 294.31346744 C-8.45863487 290.72935999 -8.45769006 287.14525256 -8.45672578 283.56114513 C-8.45653474 282.84930532 -8.45634371 282.13746551 -8.45614689 281.40405479 C-8.4557598 279.96454134 -8.45536947 278.5250279 -8.45497591 277.08551446 C-8.44900482 254.68269987 -8.46444732 232.27998856 -8.49658203 209.87719727 C-8.53263884 184.71865466 -8.55199445 159.56017754 -8.54704332 134.40160745 C-8.54470761 121.07641111 -8.55009275 107.75130728 -8.57493591 94.42613411 C-8.59590343 83.08283458 -8.59958626 71.73969358 -8.58063632 60.39638764 C-8.5714506 54.60539724 -8.57042213 48.81470276 -8.59099197 43.02373505 C-8.60959902 37.72691865 -8.60531438 32.43064268 -8.58244616 27.13384753 C-8.57823433 25.21329791 -8.58254627 23.29270767 -8.5960421 21.37220085 C-8.61309419 18.7692268 -8.59959369 16.16816294 -8.57820892 13.56526279 C-8.59662521 12.4363648 -8.59662521 12.4363648 -8.61541355 11.28466079 C-8.54759249 7.35619892 -8.07004867 5.64190933 -5.60027552 2.52277654 C-2.95458984 0.49609375 -2.95458984 0.49609375 0 0 Z M16.04541016 36.49609375 C16.04541016 173.77609375 16.04541016 311.05609375 16.04541016 452.49609375 C19.67347149 451.04486922 22.787698 449.6206519 26.15869141 447.73046875 C27.14675781 447.17746094 28.13482422 446.62445313 29.15283203 446.0546875 C30.21050781 445.45785156 31.26818359 444.86101562 32.35791016 444.24609375 C34.01983398 443.31216797 34.01983398 443.31216797 35.71533203 442.359375 C44.20117942 437.57495509 52.62041833 432.6810344 61.02124023 427.74902344 C69.18271968 422.96890904 77.42557563 418.34539297 85.68994141 413.74609375 C92.8589471 409.74644923 99.96633778 405.65261331 107.04541016 401.49609375 C116.19454304 396.12412582 125.41944147 390.9053285 134.68994141 385.74609375 C141.8589471 381.74644923 148.96633778 377.65261331 156.04541016 373.49609375 C165.19454304 368.12412582 174.41944147 362.9053285 183.68994141 357.74609375 C190.8589471 353.74644923 197.96633778 349.65261331 205.04541016 345.49609375 C214.19454304 340.12412582 223.41944147 334.9053285 232.68994141 329.74609375 C239.8589471 325.74644923 246.96633778 321.65261331 254.04541016 317.49609375 C263.19454304 312.12412582 272.41944147 306.9053285 281.68994141 301.74609375 C288.8589471 297.74644923 295.96633778 293.65261331 303.04541016 289.49609375 C311.15959756 284.73180023 319.32341611 280.07181773 327.54541016 275.49609375 C336.96732872 270.25253364 346.30495281 264.88016531 355.60595703 259.42529297 C363.69806648 254.68318658 371.8477931 250.05300441 380.04541016 245.49609375 C380.04541016 244.83609375 380.04541016 244.17609375 380.04541016 243.49609375 C379.41376953 243.14530762 378.78212891 242.79452148 378.13134766 242.43310547 C366.37113005 235.89423808 354.64887495 229.30993624 343.04541016 222.49609375 C334.93124925 217.73175469 326.76740552 213.07181291 318.54541016 208.49609375 C309.31609613 203.35977986 300.17304043 198.0939684 291.06494141 192.74609375 C283.94012826 188.57365416 276.75994874 184.51114131 269.54541016 180.49609375 C260.31609613 175.35977986 251.17304043 170.0939684 242.06494141 164.74609375 C234.94012826 160.57365416 227.75994874 156.51114131 220.54541016 152.49609375 C211.31609613 147.35977986 202.17304043 142.0939684 193.06494141 136.74609375 C185.94012826 132.57365416 178.75994874 128.51114131 171.54541016 124.49609375 C162.31609613 119.35977986 153.17304043 114.0939684 144.06494141 108.74609375 C136.94012826 104.57365416 129.75994874 100.51114131 122.54541016 96.49609375 C113.31609613 91.35977986 104.17304043 86.0939684 95.06494141 80.74609375 C87.94012468 76.57365206 80.75987 72.51128754 73.54541016 68.49609375 C65.20298941 63.85137002 56.91186826 59.13031583 48.67041016 54.30859375 C47.68733887 53.73351074 46.70426758 53.15842773 45.69140625 52.56591797 C41.85441428 50.31876554 38.01919493 48.06862465 34.18603516 45.81494141 C31.51633124 44.24658357 28.84364176 42.68342859 26.17041016 41.12109375 C25.37328613 40.65034424 24.57616211 40.17959473 23.75488281 39.69458008 C20.14136626 37.34520696 20.14136626 37.34520696 16.04541016 36.49609375 Z " fill="#16B8A6" transform="translate(51.95458984375,3.50390625)"/>
<path d="M0 0 C11.55 0 23.1 0 35 0 C40.93978432 18.6120288 46.87694829 37.22488183 52.80667114 55.84011841 C55.27075834 63.57533954 57.73705174 71.30984155 60.20837402 79.04275513 C61.34876612 82.61372742 62.48581146 86.18575635 63.62145996 89.75823975 C64.12164301 91.32924235 64.62333914 92.89976405 65.12658691 94.4697876 C65.80449355 96.58539496 66.47719737 98.70258241 67.1484375 100.8203125 C67.51114746 101.95742676 67.87385742 103.09454102 68.24755859 104.26611328 C69 107 69 107 69 110 C69.66 110 70.32 110 71 110 C71.25346191 108.76419189 71.50692383 107.52838379 71.76806641 106.25512695 C73.07961838 100.3681953 74.88455398 94.66229191 76.7109375 88.91796875 C77.25785751 87.18362579 77.25785751 87.18362579 77.81582642 85.41424561 C78.79601987 82.31039048 79.77985014 79.20772172 80.76580811 76.10569382 C81.37670962 74.18211683 81.98598229 72.25803144 82.59472656 70.33377075 C88.065906 53.04183232 93.62794965 35.78275286 99.47021484 18.61206055 C99.69840912 17.93846497 99.92660339 17.26486938 100.16171265 16.57086182 C100.75710301 14.81565381 101.35684479 13.06192341 101.95703125 11.30834961 C103.13069414 7.58543157 104.05325315 3.78698742 105 0 C116.22 0 127.44 0 139 0 C136.74985209 10.12566559 136.74985209 10.12566559 135.54223633 13.65380859 C135.26987152 14.45703049 134.99750671 15.26025238 134.71688843 16.08781433 C134.42488556 16.93281998 134.13288269 17.77782562 133.83203125 18.6484375 C133.36502304 20.01800346 133.36502304 20.01800346 132.88858032 21.41523743 C131.86803347 24.40349661 130.84041829 27.38926927 129.8125 30.375 C129.09029276 32.48403383 128.3683734 34.59316626 127.64672852 36.70239258 C122.36235117 52.12628543 116.99884763 67.52241896 111.6081543 82.90942383 C106.19805704 98.36390296 100.91166156 113.85964385 95.65795898 129.36791992 C95.35231522 130.26858185 95.04667145 131.16924377 94.73176575 132.09719849 C94.15902682 133.78522199 93.58750019 135.47365746 93.01737976 137.16256714 C91.11229044 142.77541913 91.11229044 142.77541913 90 145 C76.8 145 63.6 145 50 145 C40.75908468 118.61099439 31.62007914 92.19003789 22.55937958 65.73889542 C16.15807095 47.05172812 9.74153419 28.37175795 3.09692383 9.76928711 C2.67435303 8.58471924 2.25178223 7.40015137 1.81640625 6.1796875 C1.46006104 5.18694824 1.10371582 4.19420898 0.73657227 3.17138672 C0 1 0 1 0 0 Z " fill="#15B8A6" transform="translate(83,152)"/>
<path d="M0 0 C9.9 0 19.8 0 30 0 C30.0679288 13.87419687 30.12290443 27.74828227 30.15543652 41.62260818 C30.17105469 48.06585141 30.19222262 54.5089744 30.22631836 60.95214844 C30.25904905 67.17671634 30.27688193 73.40116899 30.28463173 79.62581635 C30.29015067 81.99392255 30.3009275 84.36202285 30.31719017 86.73007965 C30.33914651 90.0613999 30.34195932 93.3922512 30.34057617 96.72363281 C30.351362 97.69036926 30.36214783 98.65710571 30.3732605 99.65313721 C30.32543395 110.38310216 27.89213355 119.99398575 22 129 C21.443125 129.86625 20.88625 130.7325 20.3125 131.625 C10.74592006 141.45013616 -2.53619353 147.01087111 -16.15869141 147.29272461 C-31.36272911 147.40092414 -44.28642715 144.94458167 -55.875 134.2734375 C-63.99167281 125.38568077 -66 115.88980477 -66 104 C-55.77 104 -45.54 104 -35 104 C-34.34 107.3 -33.68 110.6 -33 114 C-30.06834018 117.80323436 -27.49264864 119.49588225 -23 121 C-16.95725147 121.6772804 -10.9580072 121.86966416 -6 118 C-2.60479835 112.84148394 -0.89291466 107.65999589 -0.84178162 101.49481201 C-0.8319928 100.59741302 -0.82220398 99.70001404 -0.81211853 98.77542114 C-0.80636307 97.79862396 -0.8006076 96.82182678 -0.79467773 95.81542969 C-0.78477814 94.7809671 -0.77487854 93.74650452 -0.76467896 92.68069458 C-0.73308916 89.26111134 -0.70831637 85.84151421 -0.68359375 82.421875 C-0.66302206 80.05104206 -0.64202553 77.68021277 -0.62062073 75.30938721 C-0.56542235 69.06887773 -0.51600316 62.82833527 -0.46777344 56.58776855 C-0.41754216 50.21994084 -0.36186457 43.85216103 -0.30664062 37.484375 C-0.19908634 24.98962273 -0.0981385 12.49482978 0 0 Z " fill="#15B8A6" transform="translate(225,209)"/>
</svg>
