<?xml version="1.0" encoding="UTF-8"?>
<svg version="1.1" xmlns="http://www.w3.org/2000/svg" width="500" height="300">

<path d="M0 0 C1.04419098 -0.00997513 2.08838196 -0.01995026 3.16421509 -0.03022766 C4.29937057 -0.03089233 5.43452606 -0.03155701 6.6040802 -0.03224182 C7.80794373 -0.04056534 9.01180725 -0.04888885 10.25215149 -0.0574646 C13.54794752 -0.07741489 16.84349107 -0.08820261 20.13932586 -0.09329104 C22.20232402 -0.09694142 24.26529815 -0.10318513 26.32828712 -0.11029243 C33.53692815 -0.13477487 40.74549739 -0.14783533 47.95417786 -0.15138245 C54.6542823 -0.15501247 61.3539272 -0.18487207 68.05389136 -0.22678703 C73.82057088 -0.26158748 79.58709889 -0.27693259 85.35388261 -0.27762848 C88.79163774 -0.27841827 92.22892483 -0.28701701 95.66657066 -0.31562614 C99.50812235 -0.34257922 103.3484187 -0.33770111 107.1900177 -0.32521057 C108.31505203 -0.34004486 109.44008636 -0.35487915 110.59921265 -0.37016296 C119.16880503 -0.29110106 125.70883108 1.85042543 132.27912903 7.45774841 C132.89916809 8.20153748 133.51920715 8.94532654 134.15803528 9.71165466 C135.26018372 11.01683044 135.26018372 11.01683044 136.38459778 12.34837341 C139.41981743 16.1500114 142.43721231 19.96461955 145.41682434 23.81004333 C149.27554854 28.774229 153.32891649 33.54525196 157.44367981 38.2978363 C160.99553069 42.40687437 164.42915596 46.59166677 167.79866028 50.85227966 C171.38430264 55.37077207 175.06177222 59.81484174 178.72053528 64.27415466 C180.22081844 66.10725628 181.72081936 67.94058894 183.22053528 69.77415466 C183.96948059 70.68938904 184.7184259 71.60462341 185.49006653 72.54759216 C186.92553463 74.30233251 188.36047323 76.05750621 189.79475403 77.81321716 C194.42377411 83.47756337 199.06882453 89.12843569 203.72053528 94.77415466 C205.50514488 96.94106091 207.28964012 99.10806125 209.0740509 101.27513123 C210.11404564 102.53780573 211.15436691 103.80021143 212.19514465 105.0622406 C213.45491084 106.59013884 214.71279897 108.11958503 215.97053528 109.64915466 C216.65631653 110.48188904 217.34209778 111.31462341 218.04866028 112.17259216 C219.72053528 114.27415466 219.72053528 114.27415466 221.72053528 117.27415466 C222.38053528 117.27415466 223.04053528 117.27415466 223.72053528 117.27415466 C225.42225795 115.26746377 227.01604528 113.2492556 228.59553528 111.14915466 C232.56285405 105.97951772 236.63703379 100.94600781 240.90803528 96.02415466 C244.86349712 91.45549622 248.71860161 86.83623045 252.46662903 82.09446716 C255.49144495 78.30951553 258.57447145 74.57380217 261.65803528 70.83665466 C262.57274597 69.7278595 262.57274597 69.7278595 263.50593567 68.59666443 C264.70015273 67.14912373 265.89440624 65.70161309 267.08869934 64.25413513 C270.64575128 59.93820288 274.18220767 55.60544082 277.72053528 51.27415466 C279.22039223 49.4407043 280.72039468 47.60737295 282.22053528 45.77415466 C283.33428528 44.41290466 283.33428528 44.41290466 284.47053528 43.02415466 C300.22053528 23.77415466 300.22053528 23.77415466 302.45491028 21.05149841 C304.01771494 19.13571546 305.56914629 17.21061766 307.11116028 15.27806091 C307.88975403 14.30739685 308.66834778 13.33673279 309.47053528 12.33665466 C310.16662903 11.46138123 310.86272278 10.58610779 311.57991028 9.68431091 C316.16690141 4.51976068 321.32726075 0.75578932 328.30825233 -0.00953674 C331.45530119 -0.1299234 334.58996627 -0.15401809 337.73933411 -0.14576721 C338.93373611 -0.15423676 340.12813812 -0.1627063 341.35873413 -0.1714325 C344.61931955 -0.19076258 347.87955237 -0.19658375 351.14018464 -0.19468498 C353.87099157 -0.19456483 356.60174569 -0.20314752 359.33253783 -0.2114625 C365.78099833 -0.23066456 372.22932942 -0.23359252 378.67781067 -0.2268219 C385.30867972 -0.22018725 391.93899164 -0.24302892 398.56974775 -0.28013563 C404.28128294 -0.31092702 409.99263981 -0.32218239 415.70425624 -0.31829882 C419.10730747 -0.31624055 422.50992521 -0.32156543 425.91289711 -0.34619141 C429.71356034 -0.36841378 433.51289278 -0.35865963 437.31355286 -0.34107971 C438.98236511 -0.36097458 438.98236511 -0.36097458 440.68489075 -0.38127136 C448.77508461 -0.2946595 455.61440704 1.4420603 461.664258 7.08815765 C467.00506068 12.87413004 468.27498034 18.38965966 468.07600403 26.16868591 C466.96201291 35.9008061 460.13051844 42.61073434 453.90022278 49.63352966 C450.85982213 53.07306337 448.0225388 56.63945382 445.22053528 60.27415466 C440.97205698 65.76122719 436.53830659 71.05278693 431.99665833 76.29881287 C428.43826481 80.41511228 424.99951198 84.60831601 421.62287903 88.87571716 C415.1669908 97.01517378 408.49152355 104.98384922 401.8853302 113.00144958 C397.15077156 118.74849414 392.43134742 124.5076238 387.72053528 130.27415466 C386.22067832 132.10760502 384.72067588 133.94093637 383.22053528 135.77415466 C382.10678528 137.13540466 382.10678528 137.13540466 380.97053528 138.52415466 C365.22053528 157.77415466 365.22053528 157.77415466 362.95100403 160.54759216 C361.51553593 162.30233251 360.08059732 164.05750621 358.64631653 165.81321716 C353.40848365 172.22254317 348.14876309 178.61358662 342.88508606 185.00169373 C338.15066765 190.74870528 333.43127499 196.50771246 328.72053528 202.27415466 C327.22067832 204.10760502 325.72067588 205.94093637 324.22053528 207.77415466 C323.10678528 209.13540466 323.10678528 209.13540466 321.97053528 210.52415466 C306.22053528 229.77415466 306.22053528 229.77415466 303.95100403 232.54759216 C302.51553593 234.30233251 301.08059732 236.05750621 299.64631653 237.81321716 C297.79345971 240.08048373 295.93845479 242.34597126 294.08235168 244.61058044 C293.08881909 245.82426476 292.09646737 247.03891603 291.10481262 248.25413513 C258.20409346 288.56418082 258.20409346 288.56418082 232.72053528 292.27415466 C214.45114769 294.09181962 196.96695738 290.85001743 182.21272278 279.31321716 C173.23950029 271.52142209 165.32874104 262.50195831 158.00959778 253.16477966 C154.98546977 249.34591495 151.88460495 245.59271783 148.78303528 241.83665466 C147.56163533 240.35622368 146.34028038 238.87575557 145.11897278 237.39524841 C144.53599426 236.68868103 143.95301575 235.98211365 143.35237122 235.25413513 C139.79531928 230.93820288 136.25886289 226.60544082 132.72053528 222.27415466 C131.22067832 220.4407043 129.72067588 218.60737295 128.22053528 216.77415466 C119.22053528 205.77415466 119.22053528 205.77415466 110.22053528 194.77415466 C109.47158997 193.85892029 108.72264465 192.94368591 107.95100403 192.00071716 C106.51553593 190.24597682 105.08059732 188.49080312 103.64631653 186.73509216 C99.0172971 181.07074676 94.37239622 175.41974913 89.72053528 169.77415466 C84.37368324 163.28510465 79.0399721 156.78570633 73.72053528 150.27415466 C72.22067832 148.4407043 70.72067588 146.60737295 69.22053528 144.77415466 C67.02828382 142.09515547 64.8363406 139.41591258 62.64631653 136.73509216 C58.0172971 131.07074676 53.37239622 125.41974913 48.72053528 119.77415466 C43.37368324 113.28510465 38.0399721 106.78570633 32.72053528 100.27415466 C31.22067832 98.4407043 29.72067588 96.60737295 28.22053528 94.77415466 C1.22053528 61.77415466 1.22053528 61.77415466 -1.02555847 59.02415466 C-2.53235696 57.18570383 -4.04542964 55.35237808 -5.56462097 53.52415466 C-23.4347577 31.94512163 -23.4347577 31.94512163 -22.27946472 18.27415466 C-21.20808732 11.68285454 -17.57259878 8.2005349 -12.63102722 3.93821716 C-8.53949516 1.04288052 -4.98592414 0.02564386 0 0 Z M-0.27946472 22.27415466 C0.57948648 26.60317581 2.92072768 29.1680077 5.78303528 32.39915466 C6.79321584 33.56489845 7.80232286 34.73157336 8.81037903 35.89915466 C9.30779602 36.47278748 9.80521301 37.04642029 10.31770325 37.63743591 C12.2138323 39.84969647 14.03488033 42.11663206 15.84553528 44.39915466 C22.96077267 53.36492758 30.27737547 62.16806887 37.55574036 71.00144958 C42.290299 76.74849414 47.00972314 82.5076238 51.72053528 88.27415466 C53.96968415 91.02355205 56.21925686 93.77259437 58.47053528 96.52024841 C59.97564481 98.36243977 61.4756216 100.20883616 62.97053528 102.05931091 C68.03493077 108.3106741 73.25451018 114.3704404 78.72053528 120.27415466 C79.25807434 120.87743591 79.7956134 121.48071716 80.34944153 122.10227966 C95.32542604 138.16674425 119.64904991 150.33911263 141.64631653 151.47727966 C163.38038016 151.86955543 187.24438339 147.11624693 204.72053528 133.27415466 C203.20711227 128.41479041 200.41704161 125.30414946 197.09553528 121.58665466 C196.00183045 120.33775427 194.90938543 119.08774951 193.81819153 117.83665466 C193.28596985 117.22821716 192.75374817 116.61977966 192.20539856 115.99290466 C189.58496152 112.95971216 187.10957466 109.81528725 184.62287903 106.67259216 C178.1669908 98.53313555 171.49152355 90.5644601 164.8853302 82.54685974 C159.46234288 75.96416596 154.06102732 69.36403465 148.66584778 62.75852966 C144.02990119 57.08671222 139.37877766 51.42766848 134.72053528 45.77415466 C126.27669837 35.52367151 126.27669837 35.52367151 122.53303528 30.96165466 C121.85885559 30.14052185 121.1846759 29.31938904 120.49006653 28.47337341 C118.72053528 26.27415466 118.72053528 26.27415466 117.40772533 24.16676712 C115.88480204 22.08905854 115.88480204 22.08905854 113.5397768 21.78196335 C112.68711829 21.78565052 111.83445978 21.78933769 110.95596313 21.7931366 C109.97579727 21.78763794 108.99563141 21.78213928 107.98576355 21.776474 C106.91186371 21.7908551 105.83796387 21.80523621 104.73152161 21.8200531 C103.59966934 21.81946899 102.46781708 21.81888489 101.30166626 21.81828308 C97.55165693 21.82107506 93.80243741 21.85222115 90.05256653 21.88352966 C87.45610997 21.89098805 84.85964779 21.89668288 82.26318359 21.90068054 C76.12200462 21.9144049 69.98115274 21.94594626 63.84009713 21.9860785 C56.84866515 22.03077692 49.85721962 22.05277833 42.86568034 22.07286024 C28.48381244 22.1146787 14.10218396 22.18504275 -0.27946472 22.27415466 Z M316.93515873 37.30296707 C315.38102975 39.82513126 313.55145137 42.03623731 311.60725403 44.26634216 C305.29735668 51.92399371 298.99799737 59.58987903 292.72053528 67.27415466 C290.46431088 70.0322013 288.20765511 72.78989463 285.95100403 75.54759216 C284.51553593 77.30233251 283.08059732 79.05750621 281.64631653 80.81321716 C276.40848365 87.22254317 271.14876309 93.61358662 265.88508606 100.00169373 C262.55339317 104.04596609 259.22580775 108.09345381 255.90803528 112.14915466 C255.21194153 112.99993591 254.51584778 113.85071716 253.79866028 114.72727966 C252.34744181 116.50584065 250.89980723 118.28732929 249.45491028 120.07102966 C247.22437806 122.81746729 244.97514062 125.54746589 242.72053528 128.27415466 C242.10951965 129.03470154 241.49850403 129.79524841 240.86897278 130.57884216 C222.01354463 153.12512007 190.17157972 168.84398583 161.13752747 172.06321716 C148.74568936 173.14468667 136.8946972 172.62097106 124.77522278 169.83274841 C121.69308356 169.01568289 121.69308356 169.01568289 118.72053528 170.27415466 C119.38698059 171.05017029 120.0534259 171.82618591 120.74006653 172.62571716 C125.67096898 178.39546058 130.50706306 184.2132996 135.15803528 190.21165466 C139.36114602 195.62779414 143.74561925 200.84795779 148.23982239 206.02391052 C151.68983408 210.0176347 154.98905712 214.10217601 158.22053528 218.27415466 C162.47005019 223.75968233 166.89983577 229.05370679 171.44441223 234.2966156 C174.34472344 237.64833895 177.16499693 241.04093137 179.90803528 244.52415466 C189.52658137 256.60187543 198.9516984 267.1277905 214.72053528 270.27415466 C227.23945047 271.62824141 238.94329727 269.78189067 249.40803528 262.21165466 C257.43196521 255.35104543 264.26716474 247.04884398 270.76350403 238.76634216 C272.86157557 236.09454647 275.00383021 233.46337103 277.15803528 230.83665466 C277.90955872 229.92013123 278.66108215 229.00360779 279.43537903 228.05931091 C280.18948059 227.14020935 280.94358215 226.22110779 281.72053528 225.27415466 C283.22081844 223.44105305 284.72081936 221.60772039 286.22053528 219.77415466 C286.96948059 218.85892029 287.7184259 217.94368591 288.49006653 217.00071716 C289.92553463 215.24597682 291.36047323 213.49080312 292.79475403 211.73509216 C298.03258691 205.32576616 303.29230747 198.93472271 308.5559845 192.5466156 C313.29040291 186.79960404 318.00979557 181.04059687 322.72053528 175.27415466 C324.97675968 172.51610803 327.23341545 169.75841469 329.49006653 167.00071716 C330.92553463 165.24597682 332.36047323 163.49080312 333.79475403 161.73509216 C339.03258691 155.32576616 344.29230747 148.93472271 349.5559845 142.5466156 C354.29040291 136.79960404 359.00979557 131.04059687 363.72053528 125.27415466 C365.97675968 122.51610803 368.23341545 119.75841469 370.49006653 117.00071716 C371.92553463 115.24597682 373.36047323 113.49080312 374.79475403 111.73509216 C380.03258691 105.32576616 385.29230747 98.93472271 390.5559845 92.5466156 C395.29040291 86.79960404 400.00979557 81.04059687 404.72053528 75.27415466 C406.97675968 72.51610803 409.23341545 69.75841469 411.49006653 67.00071716 C412.92553463 65.24597682 414.36047323 63.49080312 415.79475403 61.73509216 C419.81556742 56.81498409 423.84635554 51.90333836 427.88728333 46.9997406 C429.10452703 45.52199475 430.32084371 44.04348478 431.53620911 42.56419373 C434.21219672 39.30837831 436.8937666 36.05925425 439.61897278 32.84446716 C440.84487122 31.38653748 440.84487122 31.38653748 442.09553528 29.89915466 C442.80451965 29.06642029 443.51350403 28.23368591 444.24397278 27.37571716 C446.00798052 25.29311014 446.00798052 25.29311014 445.72053528 22.27415466 C430.83907092 21.87547352 415.95802247 21.57650915 401.07234001 21.39334774 C394.15881311 21.3060026 387.2486196 21.18715404 380.3372345 20.99168396 C373.65833903 20.80288073 366.98360608 20.70514928 360.30192947 20.66124153 C357.7618951 20.6299853 355.22203618 20.56893906 352.68348312 20.4767437 C335.20345649 19.8675333 326.22757549 21.85557922 316.93515873 37.30296707 Z " fill="#29EDD7" transform="translate(24.279464721679688,3.7258453369140625)"/>


</svg>
